<?xml version="1.0" standalone="no"?>
<!DOCTYPE svg PUBLIC "-//W3C//DTD SVG 20010904//EN"
 "http://www.w3.org/TR/2001/REC-SVG-20010904/DTD/svg10.dtd">
<svg version="1.0" xmlns="http://www.w3.org/2000/svg"
 width="814.000000pt" height="164.318437pt" viewBox="0 0 814.000000 164.318437"
 preserveAspectRatio="xMidYMid meet">
<metadata>
Created by Potrace Professional 1.1m
</metadata>
<g transform="translate(-68.000000,-179.858530) rotate(-270.00) scale(0.095238,-0.095238)"
fill="#c4c4c4" stroke="none">
<path d="M1894 9190 l1 -71 850 -2 c633 -2 852 0 857 9 5 7 8 40 8 74 l-1 61
-858 0 -858 0 1 -71z"/>
<path d="M1895 8975 c-3 -8 -4 -42 -2 -76 l3 -63 427 -3 428 -3 0 79 0 79
-426 0 c-335 0 -426 -3 -430 -13z"/>
<path d="M1900 8686 c-1 -10 -3 -43 -6 -73 l-5 -55 431 0 431 0 0 73 0 74
-425 0 c-398 0 -426 -2 -426 -19z"/>
<path d="M1894 8350 l1 -71 428 -2 428 -3 0 73 0 74 -430 0 -429 0 2 -71z"/>
<path d="M1895 8135 c-3 -8 -4 -42 -2 -76 l3 -63 427 -3 428 -3 0 79 0 79
-426 0 c-335 0 -426 -3 -430 -13z"/>
<path d="M1900 7846 c-1 -10 -3 -43 -6 -73 l-5 -55 862 0 863 0 -6 70 c-3 39
-6 72 -6 74 0 1 -383 3 -851 3 -803 0 -851 -2 -851 -19z"/>
<path d="M1893 7508 l0 -74 429 0 429 0 0 74 0 73 -429 0 -429 0 0 -73z"/>
<path d="M1894 7292 c-2 -6 -2 -39 -1 -73 l2 -63 429 -3 428 -3 -3 75 -3 74
-424 2 c-275 1 -425 -2 -428 -9z"/>
<path d="M1897 7017 c-2 -5 -5 -38 -6 -74 l-2 -65 431 0 431 0 0 73 0 74 -425
0 c-233 0 -426 -4 -429 -8z"/>
<path d="M1893 6668 l2 -74 428 0 428 0 0 74 0 73 -430 0 -431 0 3 -73z"/>
<path d="M1894 6452 c-2 -6 -2 -39 -1 -73 l2 -63 856 0 856 0 0 71 0 72 -855
2 c-562 1 -855 -2 -858 -9z"/>
<path d="M1897 6177 c-2 -5 -5 -38 -6 -74 l-2 -65 431 0 431 0 0 73 0 74 -425
0 c-233 0 -426 -4 -429 -8z"/>
<path d="M1893 5830 l3 -71 428 -2 427 -3 0 73 0 74 -431 0 -431 0 4 -71z"/>
<path d="M1895 5612 c-2 -6 -3 -39 -1 -73 l2 -63 428 -3 428 -3 -3 75 -3 74
-424 2 c-275 1 -425 -2 -427 -9z"/>
<path d="M1897 5338 c-4 -4 -7 -37 -7 -74 l0 -66 431 0 430 0 0 73 0 74 -423
0 c-233 0 -427 -4 -431 -7z"/>
<path d="M1894 5046 c-3 -8 -4 -40 -2 -71 l3 -56 857 -2 858 -3 -2 71 -1 71
-854 2 c-736 3 -854 1 -859 -12z"/>
<path d="M1893 4707 l3 -71 428 -3 427 -3 0 74 0 74 -431 0 -430 0 3 -71z"/>
<path d="M1894 4490 c-3 -8 -4 -41 -2 -74 l3 -60 405 1 c222 0 414 0 427 0 23
0 24 5 24 74 l0 74 -426 0 c-349 0 -426 -3 -431 -15z"/>
<path d="M1894 4206 c-3 -8 -4 -40 -2 -71 l3 -56 428 -2 428 -3 0 73 0 74
-426 0 c-360 0 -426 -2 -431 -15z"/>
<path d="M1893 3867 l2 -71 428 -3 428 -3 0 74 0 74 -431 0 -430 0 3 -71z"/>
<path d="M1898 3657 c-3 -5 -4 -38 -4 -74 l1 -65 856 -1 856 -1 0 72 0 71
-853 3 c-469 1 -854 -1 -856 -5z"/>
<path d="M1897 3374 c-4 -4 -7 -37 -7 -73 l0 -67 431 0 430 0 0 74 0 73 -423
0 c-233 0 -427 -3 -431 -7z"/>
<path d="M1893 3027 l3 -71 427 -3 428 -3 0 74 0 74 -430 0 -431 0 3 -71z"/>
<path d="M1898 2817 c-3 -5 -4 -38 -4 -74 l1 -66 405 0 c222 0 414 0 427 0 23
0 24 5 24 74 l0 74 -425 0 c-233 0 -426 -4 -428 -8z"/>
<path d="M1897 2534 c-4 -4 -7 -37 -7 -73 l0 -67 431 0 430 0 0 74 0 73 -423
0 c-233 0 -427 -3 -431 -7z"/>
<path d="M1894 2187 l3 -71 854 0 855 0 1 71 1 71 -859 0 -859 0 4 -71z"/>
<path d="M1897 1977 c-2 -5 -4 -39 -3 -76 l1 -69 428 -2 428 -3 0 79 0 79
-425 0 c-233 0 -426 -4 -429 -8z"/>
<path d="M1897 1694 c-4 -4 -7 -37 -7 -74 l0 -66 431 0 430 0 0 74 0 73 -423
0 c-233 0 -427 -3 -431 -7z"/>
<path d="M1894 1347 l4 -71 426 -3 427 -3 0 74 0 74 -431 0 -431 0 5 -71z"/>
<path d="M1897 1137 c-2 -5 -4 -39 -3 -76 l1 -69 428 -2 428 -3 0 79 0 79
-425 0 c-233 0 -426 -4 -429 -8z"/>
<path d="M1895 851 c-3 -6 -5 -39 -4 -74 l2 -63 858 0 859 0 -2 71 -1 71 -853
2 c-557 2 -854 0 -859 -7z"/>
</g>
</svg>
